<?xml version="1.0" encoding="UTF-8"?>
<svg width="540px" height="114px" viewBox="0 0 540 114" version="1.1" xmlns="http://www.w3.org/2000/svg" xmlns:xlink="http://www.w3.org/1999/xlink">
    <!-- Generator: Sketch 50.2 (55047) - http://www.bohemiancoding.com/sketch -->
    <title>bpichincha imagotipo</title>
    <desc>Created with Sketch.</desc>
    <defs></defs>
    <g id="bpichincha-imagotipo" stroke="none" stroke-width="1" fill="none" fill-rule="evenodd">
        <path d="M539.541,112.768 L522.377,68.855 C521.613,66.904 519.734,65.621 517.644,65.621 L511.563,65.621 L493.136,112.768 L503.492,112.768 L507.19,103.486 L525.418,103.486 L529.186,112.768 L539.541,112.768 Z M522.188,94.608 L510.486,94.608 L516.338,79.205 L522.188,94.608 Z M475.187,112.768 L485.141,112.768 L485.141,65.621 L480.271,65.621 C477.463,65.621 475.187,67.898 475.187,70.706 L475.187,84.116 L455.412,84.116 L455.412,65.621 L445.392,65.621 L445.392,112.768 L455.412,112.768 L455.412,93.264 L475.187,93.264 L475.187,112.768 Z M406.483,100.121 C403.728,97.433 402.313,93.734 402.313,89.093 C402.313,84.52 403.728,80.889 406.483,78.266 C409.31,75.575 412.537,74.231 416.235,74.231 C419.855,74.231 423.182,75.413 425.795,77.481 C427.763,79.035 430.631,78.697 432.387,76.907 L435.473,73.757 C430.695,67.839 424.44,64.88 416.707,64.88 C409.646,64.88 403.794,67.101 399.086,71.607 C394.379,76.044 392.023,81.963 392.023,89.293 C392.023,96.559 394.379,102.41 399.086,106.849 C403.86,111.288 409.848,113.505 417.043,113.505 C424.979,113.505 431.369,110.546 436.211,104.627 L429.554,97.567 C426.324,101.94 422.088,104.158 416.773,104.158 C412.672,104.158 409.241,102.814 406.483,100.121 Z M386.317,41.883 C391.022,37.245 393.376,31.463 393.376,24.406 C393.376,17.413 391.022,11.633 386.317,7.062 C381.611,2.423 375.831,0.138 368.977,0.138 C362.187,0.138 356.403,2.423 351.768,7.062 C347.128,11.633 344.773,17.413 344.773,24.406 C344.773,31.463 347.128,37.245 351.768,41.883 C356.403,46.454 362.187,48.74 368.977,48.74 C375.831,48.74 381.611,46.454 386.317,41.883 Z M383.228,24.406 C383.228,28.64 381.949,32.135 379.396,35.026 C376.907,37.916 373.479,39.329 369.243,39.329 C364.875,39.329 361.444,37.916 358.893,35.026 C356.337,32.135 355.062,28.64 355.062,24.406 C355.062,20.238 356.337,16.742 358.893,13.85 C361.515,10.96 364.94,9.549 369.243,9.549 C373.345,9.549 376.64,11.028 379.261,13.918 C381.883,16.809 383.228,20.304 383.228,24.406 Z M351.052,65.621 L341.9,65.621 L341.9,112.768 L351.922,112.768 L351.922,80.955 L369.477,110.292 C370.395,111.828 372.051,112.768 373.838,112.768 L382.928,112.768 L382.928,65.621 L372.975,65.621 L372.975,97.567 L355.419,68.104 C354.502,66.565 352.844,65.621 351.052,65.621 Z M310.109,35.363 C307.354,32.673 305.941,28.975 305.941,24.338 C305.941,19.767 307.354,16.137 310.109,13.515 C312.935,10.827 316.161,9.482 319.856,9.482 C323.477,9.482 326.799,10.663 329.412,12.731 C331.377,14.286 334.245,13.947 335.999,12.158 L339.083,9.011 C334.312,3.096 328.06,0.138 320.328,0.138 C313.271,0.138 307.422,2.356 302.717,6.86 C298.012,11.296 295.658,17.212 295.658,24.538 C295.658,31.799 298.012,37.648 302.717,42.084 C307.488,46.521 313.473,48.74 320.664,48.74 C328.598,48.74 334.982,45.782 339.822,39.867 L333.168,32.808 C329.94,37.177 325.706,39.396 320.396,39.396 C316.295,39.396 312.867,38.051 310.109,35.363 Z M277.48,48 L286.563,48 L286.563,0.877 L276.616,0.877 L276.616,32.808 L259.07,3.358 C258.153,1.82 256.495,0.877 254.705,0.877 L245.561,0.877 L245.561,48 L255.575,48 L255.575,16.204 L273.12,45.528 C274.038,47.061 275.692,48 277.48,48 Z M238.961,64.88 C231.899,64.88 226.048,67.101 221.341,71.606 C216.633,76.044 214.278,81.963 214.278,89.293 C214.278,96.559 216.633,102.41 221.341,106.849 C226.115,111.288 232.103,113.505 239.298,113.505 C247.234,113.505 253.624,110.546 258.466,104.628 L251.807,97.567 C248.579,101.94 244.342,104.158 239.028,104.158 C234.926,104.158 231.496,102.814 228.738,100.121 C225.981,97.434 224.568,93.734 224.568,89.093 C224.568,84.52 225.981,80.889 228.738,78.266 C231.563,75.575 234.792,74.23 238.49,74.23 C242.066,74.23 245.354,75.383 247.954,77.406 C249.969,78.973 252.854,78.73 254.64,76.907 L257.727,73.757 C252.95,67.839 246.696,64.88 238.961,64.88 Z M227.845,48 L238.197,48 L221.042,4.109 C220.28,2.16 218.401,0.877 216.31,0.877 L210.233,0.877 L191.813,48 L202.167,48 L205.863,38.723 L224.082,38.723 L227.845,48 Z M220.854,29.85 L209.157,29.85 L215.006,14.455 L220.854,29.85 Z M181.871,23.464 C185.098,20.976 186.711,17.75 186.711,13.918 C186.711,5.516 180.325,0.877 170.443,0.877 L149.27,0.877 L149.27,48 L171.586,48 C176.493,48 180.393,46.723 183.35,44.236 C186.375,41.681 187.854,38.32 187.854,34.219 C187.854,29.85 185.837,26.288 181.871,23.464 Z M176.628,14.927 C176.628,18.154 174.006,19.767 168.83,19.767 L159.284,19.767 L159.284,10.087 L168.427,10.087 C174.274,10.087 176.628,11.364 176.628,14.927 Z M177.771,33.345 C177.771,37.312 174.88,38.789 169.301,38.789 L159.284,38.789 L159.284,28.169 L169.569,28.169 C175.014,28.169 177.771,29.917 177.771,33.345 Z M168.369,65.621 L149.27,65.621 L149.27,112.768 L159.289,112.768 L159.289,97.835 L168.369,97.835 C173.816,97.835 178.255,96.357 181.687,93.33 C185.115,90.304 186.797,86.334 186.797,81.426 C186.797,76.582 185.115,72.748 181.753,69.924 C178.39,67.033 173.951,65.621 168.369,65.621 Z M166.62,74.833 C173.548,74.833 176.843,76.853 176.843,81.626 C176.843,86.269 173.413,88.621 166.62,88.621 L159.289,88.621 L159.289,74.833 L166.62,74.833 Z M195.229,112.768 L205.182,112.768 L205.182,65.621 L195.229,65.621 L195.229,112.768 Z M277.676,65.621 L267.654,65.621 L267.654,112.768 L277.676,112.768 L277.676,93.264 L297.447,93.264 L297.447,112.768 L307.401,112.768 L307.401,65.621 L302.535,65.621 C299.727,65.621 297.447,67.898 297.447,70.706 L297.447,84.116 L277.676,84.116 L277.676,65.621 Z M329.615,65.621 L319.674,65.621 L319.674,112.768 L329.627,112.768 L329.627,65.631 L329.615,65.621 Z" id="Fill-1" fill="#1C2344"></path>
        <path d="M70.708,0.877 L0.266,0.877 L0.266,75.302 C0.266,95.994 17.039,112.768 37.73,112.768 L112.156,112.768 L112.156,0.877 L70.708,0.877" id="Fill-2" fill="#FBDA1E"></path>
        <polyline id="Fill-3" fill="#1C2344" points="93.534 56.742 76.702 56.742 76.702 36.331 56.211 36.331 56.211 19.499 93.534 19.499 93.534 56.742"></polyline>
    </g>
</svg>